<svg xmlns="http://www.w3.org/2000/svg" width="18" height="15">
    <path fill="#FFF" fill-rule="evenodd" d="M16.377 4.061c-1.151.01-2.302.003-3.453.003-1.114.001-2.228.005-3.343-.003-.202-.001-.315.049-.419.246-.445.838-1.139 1.308-2.106 1.297-.937-.01-1.607-.481-2.034-1.292-.113-.214-.24-.252-.45-.251-1.175.008-2.35.004-3.525.004C.461 4.064.074 3.74.083 3.26c.009-.471.381-.78.951-.781 1.175-.003 2.35-.005 3.525.003.223.002.352-.042.473-.269.43-.809 1.108-1.27 2.045-1.275.938-.005 1.623.444 2.059 1.251.127.235.261.294.502.293 2.156-.007 4.312-.004 6.468-.004.097 0 .194-.005.291.002.455.027.795.362.801.784.006.433-.349.794-.821.797zM7.084 2.513c-.429.002-.764.332-.764.753.001.442.343.77.794.762.433-.008.741-.33.734-.77-.006-.431-.33-.747-.764-.745zm9.198 6.217c-.691.004-1.381.008-2.071-.004-.197-.003-.294.063-.388.239-.448.835-1.132 1.313-2.102 1.305-.954-.007-1.629-.488-2.057-1.314-.109-.211-.238-.227-.428-.227-2.749.003-5.498.004-8.247 0-.672 0-1.083-.551-.83-1.105.158-.347.45-.482.824-.481 1.38.004 2.761.001 4.142.001 1.356 0 2.713-.004 4.069.004.239.002.371-.055.5-.289.44-.802 1.119-1.261 2.058-1.255.936.006 1.615.458 2.048 1.269.118.221.247.28.476.275.666-.012 1.332-.007 1.998-.003.556.003.935.338.924.807-.01.458-.377.774-.916.778zm-4.534-1.551c-.428 0-.764.334-.764.757 0 .429.329.756.761.758.433.002.755-.32.757-.756.001-.433-.322-.758-.754-.759zM.99 11.811c.666-.003 1.333-.01 1.999.003.241.005.376-.051.503-.288.435-.81 1.12-1.259 2.057-1.255.937.003 1.615.462 2.046 1.272.12.225.247.271.472.271 2.666-.006 5.331-.004 7.996-.004.097 0 .194-.002.291.001.48.015.835.342.844.777.01.446-.355.804-.851.807-1.078.008-2.157.002-3.235.002h-.981v.001c-1.369 0-2.738.004-4.107-.004-.203-.001-.312.049-.414.245-.425.816-1.1 1.285-2.032 1.298-.963.014-1.664-.45-2.107-1.294-.101-.194-.212-.253-.417-.25-.691.01-1.381.008-2.072.002-.532-.004-.902-.338-.899-.796.004-.459.375-.786.907-.788zm4.57 1.55c.426-.008.76-.352.747-.769-.013-.433-.339-.749-.771-.747-.437.001-.753.315-.756.752-.003.452.324.773.78.764z"/>
</svg>
